<?xml version="1.0" encoding="UTF-8"?>
<!DOCTYPE svg PUBLIC "-//W3C//DTD SVG 1.0//EN" "http://www.w3.org/TR/2001/REC-SVG-20010904/DTD/svg10.dtd">
<!-- Creator: CorelDRAW 2020 (64-Bit) -->
<svg xmlns="http://www.w3.org/2000/svg" xml:space="preserve" width="3.37501in" height="3.99349in" version="1.0" style="shape-rendering:geometricPrecision; text-rendering:geometricPrecision; image-rendering:optimizeQuality; fill-rule:evenodd; clip-rule:evenodd"
viewBox="0 0 3198.6 3784.76"
 xmlns:xlink="http://www.w3.org/1999/xlink"
 xmlns:xodm="http://www.corel.com/coreldraw/odm/2003">
 <defs>
  <style type="text/css">
   <![CDATA[
    .fil0 {fill:#19574C}
   ]]>
  </style>
 </defs>
 <g id="Layer_x0020_1">
  <metadata id="CorelCorpID_0Corel-Layer"/>
  <path class="fil0" d="M2199.65 687.96l0 1836.86 -600.35 -570.12 -600.35 570.12 0 -1836.86 0 -117.84 600.35 -570.12 600.35 570.12 0 117.84zm-1483.91 1290.78l0 285.69 0 1465.41c0,30.2 -24.71,54.91 -54.91,54.91l-605.92 0c-30.2,0 -54.91,-24.71 -54.91,-54.91l0 -1465.41 0 -285.69 0 -67.25 715.74 -671.31 0 738.56zm1767.12 0l0 285.69 0 1465.41c0,30.2 24.71,54.91 54.91,54.91l605.92 0c30.2,0 54.91,-24.71 54.91,-54.91l0 -1465.41 0 -285.69 0 -67.25 -715.74 -671.31 0 738.56zm-1014.99 995.34l262.85 0 0 252.97 -262.85 0 0 -252.97zm0 318.38l262.85 0 0 252.97 -262.85 0 0 -252.97zm731.78 -382.62l0 159.18 0 637.38c0,43.1 -35.26,78.36 -78.36,78.36l-1043.99 0c-43.09,0 -78.36,-35.25 -78.36,-78.36l0 -637.38 0 -159.18 600.35 -570.12 600.35 570.12z"/>
 </g>
</svg>
