<?xml version="1.0" encoding="UTF-8"?>
<!DOCTYPE svg PUBLIC "-//W3C//DTD SVG 1.0//EN" "http://www.w3.org/TR/2001/REC-SVG-20010904/DTD/svg10.dtd">
<!-- Creator: CorelDRAW 2020 (64-Bit) -->
<svg xmlns="http://www.w3.org/2000/svg" xml:space="preserve" width="16.0771in" height="3.99349in" version="1.0" style="shape-rendering:geometricPrecision; text-rendering:geometricPrecision; image-rendering:optimizeQuality; fill-rule:evenodd; clip-rule:evenodd"
viewBox="0 0 72581.74 18028.99"
 xmlns:xlink="http://www.w3.org/1999/xlink"
 xmlns:xodm="http://www.corel.com/coreldraw/odm/2003">
 <defs>
  <style type="text/css">
   <![CDATA[
    .fil0 {fill:#19574C}
    .fil1 {fill:#19574C;fill-rule:nonzero}
    .fil2 {fill:#33CC33;fill-rule:nonzero}
   ]]>
  </style>
 </defs>
 <g id="Layer_x0020_1">
  <metadata id="CorelCorpID_0Corel-Layer"/>
  <path class="fil0" d="M10478.22 3277.17l0 8750.04 -2859.82 -2715.83 -2859.82 2715.83 0 -8750.04 0 -561.34 2859.82 -2715.83 2859.82 2715.83 0 561.34zm-7068.74 6148.76l0 1360.9 0 6980.6c0,143.85 -117.72,261.56 -261.56,261.56l-2886.36 0c-143.85,0 -261.56,-117.7 -261.56,-261.56l0 -6980.6 0 -1360.9 0 -320.34 3409.48 -3197.85 0 3518.19zm8417.84 0l0 1360.9 0 6980.6c0,143.85 117.72,261.56 261.56,261.56l2886.36 0c143.85,0 261.56,-117.7 261.56,-261.56l0 -6980.6 0 -1360.9 0 -320.34 -3409.48 -3197.85 0 3518.19zm-4834.97 4741.38l1252.11 0 0 1205.06 -1252.11 0 0 -1205.06zm0 1516.62l1252.11 0 0 1205.06 -1252.11 0 0 -1205.06zm3485.87 -1822.65l0 758.26 0 3036.21c0,205.31 -167.98,373.25 -373.25,373.25l-4973.13 0c-205.27,0 -373.25,-167.93 -373.25,-373.25l0 -3036.21 0 -758.26 2859.82 -2715.83 2859.82 2715.83z"/>
  <path class="fil1" d="M20889.88 7280.16l0 162.38c-184.03,5.4 -323.4,25.7 -418.12,60.89 -94.72,35.17 -158.31,100.12 -190.79,194.84 -32.47,94.72 -48.72,242.21 -48.72,442.47l0 4189.26c0,146.14 10.82,255.75 32.47,328.82 21.65,73.07 62.24,121.77 121.79,146.14 59.53,24.35 146.14,36.53 259.8,36.53l267.91 0c140.73,0 292.28,-54.12 454.66,-162.37 162.37,-108.26 320.68,-257.1 474.94,-446.54 154.26,-189.44 288.21,-404.59 401.87,-645.45 113.66,-240.86 194.86,-491.17 243.56,-750.97l186.73 0c-16.23,194.84 -24.35,443.82 -24.35,746.92 0,140.72 2.7,345.05 8.12,612.97 5.4,267.91 21.65,545.31 48.7,832.16 -276.03,-10.82 -587.25,-17.6 -933.65,-20.3 -346.4,-2.7 -654.9,-4.05 -925.53,-4.05 -146.14,0 -331.52,0 -556.13,0 -224.63,0 -468.19,1.35 -730.69,4.05 -262.5,2.7 -527.71,5.42 -795.64,8.12 -267.91,2.7 -520.96,6.75 -759.09,12.18l0 -162.37c167.79,-10.84 292.28,-32.49 373.45,-64.96 81.19,-32.47 135.31,-97.42 162.38,-194.84 27.05,-97.44 40.6,-243.57 40.6,-438.41l0 -4026.9c0,-200.26 -13.54,-347.75 -40.6,-442.47 -27.07,-94.72 -82.54,-159.66 -166.44,-194.84 -83.89,-35.19 -207.03,-55.49 -369.4,-60.89l0 -162.38c156.96,5.42 363.98,10.82 621.08,16.25 257.1,5.4 531.78,8.12 824.06,8.12 270.61,0 535.83,-2.72 795.64,-8.12 259.78,-5.42 473.59,-10.82 641.38,-16.25z"/>
  <path id="1" class="fil1" d="M24129.24 13085.05c-254.38,0 -462.76,-48.7 -625.15,-146.14 -162.37,-97.42 -280.1,-224.61 -353.15,-381.57 -73.07,-156.96 -109.61,-322.05 -109.61,-495.24 0,-227.33 51.42,-412.71 154.26,-556.13 102.84,-143.44 236.79,-259.8 401.87,-349.12 165.08,-89.3 339.64,-163.72 523.66,-223.26 184.03,-59.54 358.57,-117.72 523.66,-174.56 165.08,-56.82 299.05,-124.47 401.87,-202.96 102.84,-78.47 154.26,-179.96 154.26,-304.45l0 -722.57c0,-86.59 -14.88,-181.31 -44.65,-284.15 -29.77,-102.84 -85.24,-192.14 -166.44,-267.93 -81.19,-75.77 -202.96,-113.66 -365.34,-113.66 -86.59,0 -169.14,12.19 -247.61,36.54 -78.49,24.35 -147.51,58.17 -207.03,101.49 189.44,70.35 327.45,169.14 414.05,296.33 86.61,127.19 129.91,266.56 129.91,418.12 0,216.49 -75.79,386.99 -227.33,511.48 -151.54,124.49 -330.17,186.72 -535.83,186.72 -216.51,0 -384.29,-67.65 -503.36,-202.96 -119.09,-135.31 -178.61,-303.1 -178.61,-503.36 0,-167.79 41.95,-309.87 125.84,-426.24 83.89,-116.37 209.73,-223.26 377.52,-320.68 162.37,-92.02 357.22,-158.31 584.55,-198.91 227.31,-40.6 465.47,-60.89 714.44,-60.89 265.21,0 511.48,25.7 738.79,77.12 227.33,51.42 422.19,161.03 584.55,328.82 113.66,119.07 186.73,267.91 219.21,446.52 32.47,178.61 48.72,408.64 48.72,690.09l0 2175.82c0,135.31 9.47,227.33 28.4,276.03 18.95,48.72 52.77,73.07 101.49,73.07 43.3,0 85.24,-13.53 125.84,-40.6 40.6,-27.05 79.84,-54.12 117.72,-81.17l81.19 138.02c-119.07,102.84 -266.56,178.61 -442.47,227.31 -175.91,48.72 -361.29,73.07 -556.13,73.07 -232.73,0 -412.71,-28.4 -539.9,-85.24 -127.19,-56.82 -216.49,-132.59 -267.91,-227.31 -51.42,-94.72 -79.84,-196.21 -85.24,-304.45 -113.66,178.61 -255.75,326.1 -426.24,442.47 -170.49,116.37 -393.77,174.54 -669.8,174.54zm771.29 -649.5c59.53,0 112.3,-9.46 158.31,-28.4 46,-18.95 93.37,-55.49 142.07,-109.61l0 -1713.04c-37.88,70.35 -87.95,139.37 -150.19,207.01 -62.24,67.67 -125.84,136.68 -190.79,207.03 -64.96,70.37 -125.84,146.14 -182.68,227.33 -56.82,81.19 -102.84,174.56 -138.02,280.1 -35.17,105.54 -52.77,228.68 -52.77,369.4 0,205.68 39.25,350.45 117.72,434.34 78.49,83.89 177.26,125.84 296.35,125.84z"/>
  <path id="2" class="fil1" d="M29479.47 8814.61l0 170.49c-113.66,0 -209.73,6.77 -288.21,20.3 -78.49,13.53 -131.26,41.95 -158.31,85.24 -27.07,43.3 -29.77,110.96 -8.12,202.98l722.57 2411.26 -138.02 186.73 787.51 -3068.88 170.49 89.3 -1079.79 4116.19c-129.89,-10.82 -261.15,-16.25 -393.77,-16.25 -132.59,0 -263.86,5.42 -393.75,16.25l-1250.29 -3588.48c-75.77,-216.49 -158.31,-346.4 -247.61,-389.7 -89.31,-43.3 -163.73,-64.95 -223.28,-64.95l0 -170.49c216.51,16.23 441.13,28.4 673.87,36.53 232.73,8.12 489.83,12.18 771.27,12.18 167.79,0 345.05,-5.4 531.78,-16.23 186.73,-10.82 361.29,-21.65 523.66,-32.47zm4091.84 0l0 170.49c-102.84,37.89 -202.98,110.96 -300.4,219.21 -97.42,108.24 -189.44,297.68 -276.03,568.31l-1014.84 3255.61c-129.91,-10.82 -261.15,-16.25 -393.77,-16.25 -132.59,0 -263.86,5.42 -393.75,16.25l-1031.09 -2995.81 243.57 -1209.68c140.72,10.82 284.15,14.88 430.29,12.18 146.14,-2.72 289.56,-6.77 430.29,-12.18l1006.72 3231.24 -105.54 -178.61 373.45 -1242.17c113.66,-373.45 156.96,-677.9 129.91,-913.35 -27.07,-235.43 -100.14,-412.69 -219.21,-531.78 -119.09,-119.07 -265.21,-186.72 -438.41,-202.96l0 -170.49c75.77,5.4 174.56,10.82 296.33,16.23 121.79,5.42 242.21,9.47 361.29,12.18 119.07,2.72 211.08,4.07 276.03,4.07 97.42,0 211.08,-2.7 340.99,-8.12 129.89,-5.4 224.61,-13.53 284.15,-24.35z"/>
  <path id="3" class="fil1" d="M37996.01 8725.3l0 3417.99c0,243.56 33.82,423.52 101.47,539.89 67.67,116.37 185.38,174.56 353.17,174.56l0 170.49c-167.79,-16.25 -335.57,-24.35 -503.36,-24.35 -270.63,0 -522.31,8.1 -755.04,24.35 -232.73,16.25 -451.94,46 -657.62,89.31l0 -584.55c-129.89,216.49 -304.45,372.1 -523.66,466.82 -219.21,94.72 -474.94,142.09 -767.21,142.09 -248.98,0 -445.19,-31.12 -588.6,-93.37 -143.44,-62.24 -253.03,-139.37 -328.82,-231.38 -81.17,-97.42 -140.72,-227.33 -178.61,-389.7 -37.88,-162.38 -56.82,-381.59 -56.82,-657.62l0 -2070.28c0,-243.56 -32.47,-423.52 -97.42,-539.89 -64.96,-116.37 -184.03,-174.56 -357.22,-174.56l0 -170.49c173.19,16.23 340.98,24.35 503.36,24.35 270.61,0 523.66,-9.47 759.09,-28.42 235.45,-18.93 453.29,-47.35 653.55,-85.24l0 3482.94c0,113.66 13.54,208.38 40.6,284.15 27.07,75.77 70.37,132.61 129.91,170.49 59.53,37.89 135.31,56.84 227.31,56.84 102.84,0 197.56,-24.37 284.17,-73.07 86.59,-48.72 158.31,-117.74 215.14,-207.03 56.82,-89.31 85.24,-190.79 85.24,-304.45l0 -2435.63c0,-243.56 -32.47,-423.52 -97.42,-539.89 -64.95,-116.37 -184.03,-174.56 -357.22,-174.56l0 -170.49c173.19,16.23 340.98,24.35 503.36,24.35 270.63,0 523.66,-9.47 759.09,-28.42 235.45,-18.93 453.31,-47.35 653.57,-85.24z"/>
  <path id="4" class="fil2" d="M38824.12 7280.16c156.96,5.42 363.98,10.82 621.08,16.25 257.1,5.4 515.54,8.12 775.34,8.12 270.63,0 530.43,-2.72 779.39,-8.12 248.98,-5.42 424.89,-8.12 527.73,-8.12 822.69,0 1435.66,148.84 1838.88,446.54 403.24,297.68 604.85,681.97 604.85,1152.86 0,194.84 -40.6,399.17 -121.79,612.95 -81.17,213.8 -219.21,411.36 -414.05,592.67 -194.86,181.31 -461.41,328.8 -799.69,442.47 -338.29,113.66 -767.23,170.49 -1286.82,170.49l-860.58 0 0 -162.37 779.39 0c276.03,0 485.76,-73.07 629.2,-219.21 143.44,-146.14 240.86,-338.27 292.28,-576.43 51.42,-238.15 77.12,-495.24 77.12,-771.29 0,-514.18 -58.17,-898.46 -174.54,-1152.86 -116.37,-254.38 -317.99,-381.57 -604.85,-381.57 -184.03,0 -303.1,46 -357.22,138.02 -54.12,92.02 -81.19,278.75 -81.19,560.18l0 3945.71c0,221.91 23,386.99 69.02,495.24 46,108.26 133.94,178.61 263.86,211.1 129.89,32.47 319.33,48.7 568.31,48.7l0 186.73c-184.01,-5.42 -424.87,-10.82 -722.57,-16.25 -297.68,-5.4 -614.32,-8.1 -949.9,-8.1 -248.96,0 -497.94,2.7 -746.92,8.1 -248.98,5.42 -484.41,10.82 -706.32,16.25l0 -162.37c167.79,-10.84 292.28,-32.49 373.45,-64.96 81.19,-32.47 135.31,-97.42 162.38,-194.84 27.05,-97.44 40.6,-243.57 40.6,-438.41l0 -4026.9c0,-200.26 -13.54,-347.75 -40.6,-442.47 -27.07,-94.72 -82.54,-159.66 -166.44,-194.84 -83.89,-35.19 -207.03,-55.49 -369.4,-60.89l0 -162.38z"/>
  <path id="5" class="fil2" d="M47235.1 8700.94c194.86,0 346.4,41.95 454.66,125.84 108.24,83.89 184.01,189.44 227.31,316.63 43.3,127.19 64.95,253.03 64.95,377.52 0,243.56 -69,437.06 -207.01,580.5 -138.02,143.42 -317.99,215.14 -539.9,215.14 -238.15,0 -418.12,-54.12 -539.89,-162.37 -121.79,-108.26 -182.68,-248.98 -182.68,-422.19 0,-184.01 39.25,-335.57 117.72,-454.64 78.49,-119.07 177.26,-219.21 296.35,-300.4 -97.44,0 -184.03,18.95 -259.8,56.84 -64.95,27.05 -127.19,64.95 -186.73,113.66 -59.54,48.7 -110.96,104.17 -154.26,166.42 -43.3,62.24 -77.12,131.26 -101.47,207.03 -24.37,75.77 -36.54,154.26 -36.54,235.45l0 2435.61c0,259.8 54.12,435.71 162.38,527.73 108.24,92 286.85,138.02 535.83,138.02l0 170.49c-124.49,-5.42 -309.87,-12.18 -556.13,-20.3 -246.28,-8.12 -499.31,-12.18 -759.11,-12.18 -243.56,0 -489.82,4.05 -738.79,12.18 -248.98,8.12 -435.71,14.88 -560.2,20.3l0 -170.49c167.79,0 285.52,-40.6 353.17,-121.79 67.65,-81.19 101.49,-235.43 101.49,-462.76l0 -2573.64c0,-243.56 -32.47,-423.52 -97.44,-539.89 -64.95,-116.37 -184.01,-174.56 -357.22,-174.56l0 -170.49c173.21,16.23 340.99,24.35 503.36,24.35 270.63,0 523.66,-9.47 759.11,-28.42 235.43,-18.93 453.29,-47.35 653.55,-85.24l0 584.55c70.37,-140.72 156.96,-255.73 259.8,-345.05 102.84,-89.3 220.56,-155.61 353.17,-198.91 132.59,-43.3 277.38,-64.95 434.34,-64.95z"/>
  <path id="6" class="fil2" d="M50263.38 8700.94c422.17,0 788.88,71.72 1100.09,215.14 311.22,143.44 553.43,377.54 726.64,702.29 173.19,324.75 259.78,760.44 259.78,1307.1 0,546.66 -86.59,982.37 -259.78,1307.12 -173.21,324.75 -415.41,557.48 -726.64,698.22 -311.21,140.72 -677.92,211.08 -1100.09,211.08 -416.76,0 -782.09,-70.37 -1096.02,-211.08 -313.92,-140.73 -557.5,-373.47 -730.69,-698.22 -173.21,-324.75 -259.8,-760.46 -259.8,-1307.12 0,-546.66 86.59,-982.35 259.8,-1307.1 173.19,-324.75 416.76,-558.85 730.69,-702.29 313.92,-143.42 679.25,-215.14 1096.02,-215.14zm0 162.37c-162.37,0 -297.68,162.38 -405.94,487.13 -108.24,324.75 -162.37,849.76 -162.37,1575.03 0,725.29 54.12,1248.93 162.37,1570.97 108.26,322.05 243.57,483.06 405.94,483.06 162.38,0 297.7,-161.01 405.94,-483.06 108.24,-322.05 162.37,-845.69 162.37,-1570.97 0,-725.27 -54.12,-1250.28 -162.37,-1575.03 -108.24,-324.75 -243.56,-487.13 -405.94,-487.13z"/>
  <path id="7" class="fil2" d="M54663.73 8733.42l0 4928.06c0,265.22 62.24,442.48 186.73,531.78 124.49,89.31 294.98,133.96 511.46,133.96l0 170.49c-151.54,-5.4 -362.63,-12.18 -633.25,-20.3 -270.63,-8.1 -557.48,-12.18 -860.58,-12.18 -216.51,0 -430.29,4.07 -641.38,12.18 -211.08,8.12 -370.77,14.89 -479.01,20.3l0 -170.49c167.79,0 285.5,-40.6 353.17,-121.79 67.65,-81.17 101.47,-235.43 101.47,-462.76l0 -4035c0,-243.56 -32.47,-423.52 -97.42,-539.9 -64.95,-116.37 -184.03,-174.54 -357.22,-174.54l0 -170.49c173.19,16.23 340.98,24.35 503.36,24.35 270.63,0 523.66,-9.47 759.09,-28.42 235.45,-18.95 453.31,-47.35 653.57,-85.24zm1234.05 -32.47c270.61,0 511.46,74.42 722.57,223.26 211.08,148.84 378.87,373.47 503.36,673.87 124.49,300.38 186.72,680.62 186.72,1140.66 0,460.06 -50.05,844.35 -150.19,1152.88 -100.12,308.5 -238.15,554.76 -414.05,738.79 -175.91,184.03 -377.52,315.28 -604.85,393.77 -227.33,78.47 -468.19,117.72 -722.57,117.72 -184.03,0 -358.57,-20.3 -523.66,-60.89 -165.08,-40.6 -301.75,-117.72 -409.99,-231.38l81.19 -105.54c43.3,59.54 100.12,100.12 170.49,121.79 70.37,21.65 140.72,32.47 211.08,32.47 200.26,0 362.64,-73.07 487.11,-219.21 124.49,-146.14 215.15,-365.34 271.98,-657.62 56.84,-292.28 85.26,-657.62 85.26,-1096.03 0,-481.71 -24.37,-852.46 -73.07,-1112.26 -48.72,-259.8 -113.66,-439.76 -194.86,-539.89 -81.19,-100.14 -173.21,-150.21 -276.03,-150.21 -151.56,0 -286.87,54.12 -405.94,162.38 -119.07,108.24 -178.61,248.96 -178.61,422.17l0 -397.82c124.49,-205.68 292.28,-358.57 503.36,-458.71 211.08,-100.12 454.64,-150.19 730.69,-150.19z"/>
  <path id="8" class="fil2" d="M59908.41 8700.94c476.31,0 851.11,139.37 1124.45,418.12 273.33,278.73 409.99,745.57 409.99,1400.49l-2541.17 0 -16.23 -154.26 1372.06 0c5.4,-265.22 -5.42,-510.13 -32.49,-734.74 -27.05,-224.63 -70.35,-404.59 -129.89,-539.9 -59.54,-135.31 -140.72,-202.96 -243.56,-202.96 -146.14,0 -265.22,115.02 -357.22,345.05 -92.02,230.03 -151.56,623.78 -178.61,1181.26l32.47 64.96c-5.42,54.12 -8.12,108.24 -8.12,162.37 0,54.12 0,110.96 0,170.49 0,378.89 47.35,673.87 142.09,884.95 94.72,211.08 213.79,357.22 357.22,438.41 143.42,81.19 288.21,121.77 434.34,121.77 75.77,0 166.44,-10.82 271.98,-32.47 105.54,-21.65 220.56,-71.72 345.05,-150.19 124.49,-78.49 246.26,-198.91 365.34,-361.29l138.02 48.72c-64.95,216.51 -169.14,431.64 -312.57,645.45 -143.44,213.79 -328.8,389.7 -556.13,527.71 -227.33,138.02 -503.36,207.03 -828.11,207.03 -346.4,0 -661.67,-70.37 -945.83,-211.08 -284.15,-140.73 -510.13,-373.47 -677.92,-698.22 -167.79,-324.75 -251.68,-760.46 -251.68,-1307.12 0,-519.59 92.02,-943.12 276.03,-1270.57 184.03,-327.45 434.36,-568.31 750.99,-722.57 316.63,-154.26 669.8,-231.38 1059.49,-231.38z"/>
  <path id="9" class="fil2" d="M64706.57 8700.94c194.86,0 346.4,41.95 454.66,125.84 108.24,83.89 184.01,189.44 227.31,316.63 43.3,127.19 64.95,253.03 64.95,377.52 0,243.56 -69,437.06 -207.01,580.5 -138.02,143.42 -317.99,215.14 -539.9,215.14 -238.15,0 -418.12,-54.12 -539.89,-162.37 -121.79,-108.26 -182.68,-248.98 -182.68,-422.19 0,-184.01 39.25,-335.57 117.72,-454.64 78.49,-119.07 177.26,-219.21 296.35,-300.4 -97.44,0 -184.03,18.95 -259.8,56.84 -64.95,27.05 -127.19,64.95 -186.73,113.66 -59.54,48.7 -110.96,104.17 -154.26,166.42 -43.3,62.24 -77.12,131.26 -101.47,207.03 -24.37,75.77 -36.54,154.26 -36.54,235.45l0 2435.61c0,259.8 54.12,435.71 162.38,527.73 108.24,92 286.85,138.02 535.83,138.02l0 170.49c-124.49,-5.42 -309.87,-12.18 -556.13,-20.3 -246.28,-8.12 -499.31,-12.18 -759.11,-12.18 -243.56,0 -489.82,4.05 -738.79,12.18 -248.98,8.12 -435.71,14.88 -560.2,20.3l0 -170.49c167.79,0 285.52,-40.6 353.17,-121.79 67.65,-81.19 101.49,-235.43 101.49,-462.76l0 -2573.64c0,-243.56 -32.47,-423.52 -97.44,-539.89 -64.95,-116.37 -184.01,-174.56 -357.22,-174.56l0 -170.49c173.21,16.23 340.99,24.35 503.36,24.35 270.63,0 523.66,-9.47 759.11,-28.42 235.43,-18.93 453.29,-47.35 653.55,-85.24l0 584.55c70.37,-140.72 156.96,-255.73 259.8,-345.05 102.84,-89.3 220.56,-155.61 353.17,-198.91 132.59,-43.3 277.38,-64.95 434.34,-64.95z"/>
  <path id="10" class="fil2" d="M67523.77 7499.37l0 1315.24 795.64 0 0 162.37 -795.64 0 0 3369.28c0,102.84 18.95,177.26 56.84,223.26 37.88,46.02 100.12,69.02 186.73,69.02 59.53,0 129.89,-17.6 211.08,-52.77 81.17,-35.19 156.96,-96.07 227.31,-182.68l121.79 97.44c-113.66,194.84 -263.86,350.45 -450.59,466.82 -186.73,116.37 -420.82,174.56 -702.27,174.56 -178.61,0 -339.63,-23 -483.06,-69.02 -143.44,-46 -261.15,-115.02 -353.17,-207.01 -119.07,-119.09 -194.84,-266.57 -227.33,-442.48 -32.47,-175.91 -48.7,-404.57 -48.7,-686.02l0 -2760.37 -617.02 0 0 -162.37 617.02 0 0 -958.02c286.85,0 548.01,-28.4 783.46,-85.24 235.43,-56.82 461.41,-147.49 677.9,-271.98z"/>
  <path id="11" class="fil2" d="M72581.74 8814.61l0 170.49c-102.84,37.89 -201.61,112.31 -296.33,223.26 -94.72,110.96 -188.08,299.05 -280.1,564.25l-1014.84 3020.18 -414.06 949.88 -1948.49 -4302.93c-92,-205.66 -178.61,-332.85 -259.78,-381.57 -81.19,-48.72 -151.56,-73.07 -211.08,-73.07l0 -170.49c216.49,16.23 441.12,28.4 673.85,36.53 232.73,8.12 449.24,12.18 649.5,12.18 254.38,0 473.59,-5.4 657.62,-16.23 184.01,-10.82 357.22,-21.65 519.59,-32.47l0 170.49c-97.42,0 -189.44,5.42 -276.03,16.25 -86.59,10.82 -148.84,36.53 -186.73,77.12 -37.89,40.6 -35.17,112.31 8.12,215.15l1039.19 2468.08 -89.31 64.95 389.71 -1193.45c124.49,-368.05 177.26,-671.15 158.31,-909.28 -18.95,-238.15 -82.54,-418.12 -190.79,-539.9 -108.26,-121.79 -243.57,-188.08 -405.94,-198.91l0 -170.49c75.77,5.4 167.79,10.82 276.03,16.23 108.26,5.42 215.15,9.47 320.7,12.18 105.54,2.72 190.79,4.07 255.73,4.07 97.42,0 211.08,-2.7 340.99,-8.12 129.89,-5.4 224.61,-13.53 284.15,-24.35zm-1591.27 3978.18l-340.99 982.35c-48.7,135.31 -101.47,251.68 -158.31,349.12 -56.82,97.42 -123.12,175.89 -198.91,235.43 -70.35,54.12 -163.72,100.14 -280.08,138.02 -116.38,37.89 -274.7,56.84 -474.96,56.84 -151.54,0 -312.57,-24.37 -483.06,-73.07 -170.49,-48.72 -316.63,-128.56 -438.41,-239.5 -121.77,-110.96 -182.66,-261.15 -182.66,-450.59 0,-189.44 73.07,-340.99 219.21,-454.66 146.14,-113.65 338.27,-170.49 576.43,-170.49 221.91,0 399.17,50.07 531.78,150.21 132.59,100.12 198.91,250.31 198.91,450.59 0,119.07 -41.95,238.14 -125.84,357.22 -83.89,119.07 -217.86,208.38 -401.89,267.91 43.3,5.42 92.02,9.47 146.14,12.18 54.12,2.72 97.42,4.07 129.91,4.07 173.19,0 327.45,-52.77 462.76,-158.31 135.31,-105.54 238.14,-269.28 308.5,-491.18l284.15 -884.95 227.33 -81.17z"/>
  <path class="fil1" d="M18007.73 17100.82l0 -2019.34 753.53 0c137.34,0 258.86,24.83 364.56,74.53 105.72,49.7 188.39,121.98 248.02,216.84 59.63,94.88 89.44,210.07 89.44,345.6 0,133.71 -30.25,248.02 -90.79,342.88 -60.54,94.88 -143.21,167.61 -248.02,218.21 -104.81,50.58 -225.87,75.9 -363.21,75.9l-384.9 0 0 745.39 -368.63 0zm368.63 -1070.65l390.32 0c66.87,0 124.68,-13.12 173.47,-39.32 48.79,-26.2 86.74,-62.8 113.84,-109.77 27.11,-46.98 40.65,-101.19 40.65,-162.63 0,-63.24 -13.54,-117.91 -40.65,-163.98 -27.11,-46.09 -65.05,-82.22 -113.84,-108.42 -48.79,-26.2 -106.61,-39.3 -173.47,-39.3l-390.32 0 0 623.42z"/>
  <path id="1" class="fil1" d="M20397.59 17100.82l0 -2019.34 750.81 0c137.34,0 258.86,24.83 364.58,74.53 105.7,49.7 188.37,121.98 248,216.84 59.63,94.88 89.46,210.07 89.46,345.6 0,139.13 -32.97,257.51 -98.93,355.09 -65.96,97.58 -154.95,169.85 -267,216.84l463.51 810.44 -417.42 0 -496.04 -886.34 238.53 140.95 -506.86 0 0 745.39 -368.63 0zm368.63 -1070.65l387.6 0c66.87,0 124.68,-13.12 173.47,-39.32 48.79,-26.2 86.74,-62.8 113.84,-109.77 27.11,-46.98 40.67,-101.19 40.67,-162.63 0,-63.24 -13.56,-117.91 -40.67,-163.98 -27.11,-46.09 -65.05,-82.22 -113.84,-108.42 -48.79,-26.2 -106.61,-39.3 -173.47,-39.3l-387.6 0 0 623.42z"/>
  <path id="2" class="fil1" d="M23817.44 17133.34c-148.16,0 -286.41,-26.2 -414.7,-78.6 -128.29,-52.42 -240.34,-125.59 -336.11,-219.56 -95.77,-93.97 -170.31,-204.65 -223.61,-332.04 -53.3,-127.4 -79.97,-265.19 -79.97,-413.35 0,-149.99 26.2,-288.22 78.6,-414.72 52.42,-126.5 126.5,-236.71 222.26,-330.69 95.78,-93.97 207.81,-166.7 336.11,-218.19 128.31,-51.51 267.45,-77.25 417.42,-77.25 149.99,0 289.13,26.2 417.42,78.6 128.31,52.4 240.34,125.13 336.11,218.19 95.78,93.06 170.33,202.84 223.63,329.33 53.3,126.5 79.95,264.73 79.95,414.72 0,148.16 -27.11,285.95 -81.32,413.35 -54.21,127.39 -129.2,238.07 -224.97,332.04 -95.77,93.97 -207.35,167.15 -334.76,219.56 -127.39,52.4 -266.08,78.6 -416.07,78.6zm0 -336.11c99.39,0 190.64,-17.61 273.77,-52.86 83.13,-35.23 155.86,-84.48 218.19,-147.72 62.35,-63.24 110.23,-138.23 143.67,-224.97 33.43,-86.74 50.14,-180.71 50.14,-281.9 0,-101.21 -16.71,-194.71 -50.14,-280.54 -33.43,-85.83 -81.32,-160.84 -143.67,-224.98 -62.33,-64.15 -135.06,-113.38 -218.19,-147.72 -83.13,-34.34 -174.38,-51.49 -273.77,-51.49 -97.58,0 -187.92,17.15 -271.05,51.49 -83.11,34.34 -155.84,83.57 -218.19,147.72 -62.33,64.15 -110.68,139.15 -145.02,224.98 -34.32,85.83 -51.49,179.34 -51.49,280.54 0,101.19 17.17,195.16 51.49,281.9 34.34,86.74 82.68,161.73 145.02,224.97 62.35,63.24 135.08,112.49 218.19,147.72 83.13,35.25 173.47,52.86 271.05,52.86z"/>
  <path id="3" class="fil1" d="M25835.96 17100.82l0 -2019.34 753.53 0c137.34,0 258.86,24.83 364.56,74.53 105.72,49.7 188.39,121.98 248.02,216.84 59.63,94.88 89.44,210.07 89.44,345.6 0,133.71 -30.25,248.02 -90.79,342.88 -60.54,94.88 -143.21,167.61 -248.02,218.21 -104.81,50.58 -225.87,75.9 -363.21,75.9l-384.9 0 0 745.39 -368.63 0zm368.63 -1070.65l390.32 0c66.87,0 124.68,-13.12 173.47,-39.32 48.79,-26.2 86.74,-62.8 113.84,-109.77 27.11,-46.98 40.65,-101.19 40.65,-162.63 0,-63.24 -13.54,-117.91 -40.65,-163.98 -27.11,-46.09 -65.05,-82.22 -113.84,-108.42 -48.79,-26.2 -106.61,-39.3 -173.47,-39.3l-390.32 0 0 623.42z"/>
  <polygon id="4" class="fil1" points="28225.82,17100.82 28225.82,15081.48 29570.24,15081.48 29567.52,15406.74 28591.73,15406.74 28594.45,15924.44 29516.03,15927.16 29513.31,16249.71 28591.73,16249.71 28594.45,16775.55 29570.24,16775.55 29567.52,17100.82 "/>
  <path id="5" class="fil1" d="M30472.01 17100.82l0 -2019.34 750.81 0c137.34,0 258.86,24.83 364.58,74.53 105.7,49.7 188.37,121.98 248,216.84 59.63,94.88 89.46,210.07 89.46,345.6 0,139.13 -32.97,257.51 -98.93,355.09 -65.96,97.58 -154.95,169.85 -267,216.84l463.51 810.44 -417.42 0 -496.04 -886.34 238.53 140.95 -506.86 0 0 745.39 -368.63 0zm368.63 -1070.65l387.6 0c66.87,0 124.68,-13.12 173.47,-39.32 48.79,-26.2 86.74,-62.8 113.84,-109.77 27.11,-46.98 40.67,-101.19 40.67,-162.63 0,-63.24 -13.56,-117.91 -40.67,-163.98 -27.11,-46.09 -65.05,-82.22 -113.84,-108.42 -48.79,-26.2 -106.61,-39.3 -173.47,-39.3l-387.6 0 0 623.42z"/>
  <polygon id="6" class="fil1" points="33203.37,17100.82 33200.67,15406.74 32677.53,15406.74 32677.53,15081.48 34087.01,15081.48 34087.01,15406.74 33569.3,15406.74 33572.01,17100.82 "/>
  <polygon id="7" class="fil1" points="35460.42,17100.82 35460.42,16206.34 34780.07,15081.48 35200.21,15081.48 35720.63,15959.69 35571.55,15959.69 36089.27,15081.48 36509.39,15081.48 35831.76,16203.64 35831.76,17100.82 "/>
  <polygon id="8" class="fil1" points="37850.28,17100.82 37850.28,15081.48 38218.91,15081.48 38218.91,16133.16 38118.61,16097.92 38977.86,15081.48 39441.36,15081.48 38636.34,16035.58 38658.02,15775.37 39465.76,17100.82 39032.07,17100.82 38489.97,16211.76 38218.91,16534.32 38218.91,17100.82 "/>
  <path id="9" class="fil1" d="M40158.8 17100.82l696.62 -2019.34 477.05 0 696.6 2019.34 -401.16 0 -143.65 -433.69 -780.63 0 -146.37 433.69 -398.46 0zm650.53 -758.95l569.21 0 -336.11 -1005.6 103 0 -336.11 1005.6z"/>
  <polygon id="10" class="fil1" points="43155.82,17100.82 42613.71,15081.48 43009.45,15081.48 43435.01,16802.66 43332.01,16802.66 43776.54,15081.48 44158.72,15081.48 44600.55,16802.66 44497.55,16802.66 44923.09,15081.48 45318.83,15081.48 44776.72,17100.82 44353.88,17100.82 43906.65,15425.7 44025.91,15425.7 43578.66,17100.82 "/>
  <path id="11" class="fil1" d="M45903.47 17100.82l696.62 -2019.34 477.05 0 696.6 2019.34 -401.16 0 -143.65 -433.69 -780.63 0 -146.37 433.69 -398.46 0zm650.53 -758.95l569.21 0 -336.11 -1005.6 103 0 -336.11 1005.6z"/>
  <path id="12" class="fil1" d="M49326.05 17133.34c-128.29,0 -247.11,-23.5 -356.44,-70.47 -109.33,-46.98 -203.28,-112.49 -281.9,-196.51 -78.6,-84.04 -135.97,-182.06 -172.12,-294.09l306.3 -132.83c48.79,115.66 119.26,206.45 211.42,272.4 92.16,65.96 196.07,98.95 311.7,98.95 65.05,0 121.54,-10.4 169.42,-31.18 47.88,-20.78 84.92,-49.25 111.12,-85.39 26.2,-36.13 39.3,-79.5 39.3,-130.11 0,-59.63 -17.61,-108.87 -52.84,-147.72 -35.25,-38.85 -88.11,-69.12 -158.58,-90.81l-387.6 -124.68c-157.21,-48.79 -275.57,-121.97 -355.09,-219.54 -79.5,-97.58 -119.26,-212.33 -119.26,-344.25 0,-115.66 28.47,-217.75 85.39,-306.28 56.93,-88.55 136.43,-157.67 238.53,-207.37 102.09,-49.7 219.1,-74.53 351.02,-74.53 121.08,0 232.2,21.22 333.39,63.68 101.21,42.46 188.39,101.21 261.58,176.19 73.18,74.99 127.85,163.08 163.98,264.28l-303.58 135.53c-39.76,-101.21 -99.39,-179.36 -178.9,-234.47 -79.5,-55.12 -171.66,-82.67 -276.47,-82.67 -61.44,0 -115.66,10.4 -162.63,31.18 -46.98,20.78 -83.57,49.7 -109.77,86.74 -26.2,37.04 -39.32,80.85 -39.32,131.46 0,56.02 18.08,105.26 54.21,147.72 36.15,42.46 91.27,75.45 165.35,98.95l371.33 116.54c160.84,52.4 281.45,124.68 361.86,216.84 80.41,92.16 120.61,206 120.61,341.53 0,115.66 -29.81,217.75 -89.44,306.3 -59.63,88.53 -141.85,158.1 -246.67,208.7 -104.8,50.6 -226.78,75.9 -365.91,75.9z"/>
  <path id="13" class="fil1" d="M50807.87 17100.82l696.62 -2019.34 477.05 0 696.6 2019.34 -401.16 0 -143.65 -433.69 -780.63 0 -146.37 433.69 -398.46 0zm650.53 -758.95l569.21 0 -336.11 -1005.6 103 0 -336.11 1005.6z"/>
  <polygon id="14" class="fil1" points="53536.55,17100.82 53536.55,15081.48 53823.87,15081.48 54935.19,16577.69 54786.1,16607.5 54786.1,15081.48 55154.73,15081.48 55154.73,17100.82 54864.71,17100.82 53769.66,15593.76 53905.18,15563.95 53905.18,17100.82 "/>
  <polygon id="15" class="fil1" points="56660.96,17100.82 56660.96,15081.48 57026.87,15081.48 57029.59,16775.55 57891.54,16775.55 57894.24,17100.82 "/>
  <path id="16" class="fil1" d="M58600.85 17100.82l696.62 -2019.34 477.05 0 696.6 2019.34 -401.16 0 -143.65 -433.69 -780.63 0 -146.37 433.69 -398.46 0zm650.53 -758.95l569.21 0 -336.11 -1005.6 103 0 -336.11 1005.6z"/>
  <polygon id="17" class="fil1" points="61597.86,17100.82 61055.76,15081.48 61451.49,15081.48 61877.06,16802.66 61774.06,16802.66 62218.58,15081.48 62600.76,15081.48 63042.59,16802.66 62939.59,16802.66 63365.13,15081.48 63760.87,15081.48 63218.76,17100.82 62795.92,17100.82 62348.69,15425.7 62467.95,15425.7 62020.71,17100.82 "/>
  <path id="18" class="fil1" d="M65397.2 17133.34c-155.4,0 -293.18,-32.53 -413.35,-97.58 -120.17,-65.05 -214.59,-154.49 -283.25,-268.33 -68.66,-113.84 -103,-243.06 -103,-387.62l0 -1298.34 368.63 0 0 1279.37c0,83.11 18.52,158.1 55.56,224.97 37.04,66.87 88.09,118.82 153.14,155.86 65.05,37.04 139.15,55.56 222.26,55.56 84.94,0 159.49,-18.52 223.63,-55.56 64.15,-37.04 114.75,-88.99 151.79,-155.86 37.04,-66.87 55.56,-141.85 55.56,-224.97l0 -1279.37 368.63 0 0 1298.34c0,144.56 -34.34,273.77 -103,387.62 -68.66,113.84 -163.08,203.28 -283.25,268.33 -120.17,65.05 -257.95,97.58 -413.37,97.58z"/>
 </g>
</svg>
